<svg width="31" height="31" viewBox="0 0 31 31" fill="none" xmlns="http://www.w3.org/2000/svg">
<path d="M24.5417 5.16668H21.9583V3.87501C21.9583 3.53244 21.8223 3.2039 21.58 2.96166C21.3378 2.71943 21.0092 2.58334 20.6667 2.58334C20.3241 2.58334 19.9956 2.71943 19.7533 2.96166C19.5111 3.2039 19.375 3.53244 19.375 3.87501V5.16668H11.625V3.87501C11.625 3.53244 11.4889 3.2039 11.2467 2.96166C11.0045 2.71943 10.6759 2.58334 10.3333 2.58334C9.99077 2.58334 9.66223 2.71943 9.42 2.96166C9.17776 3.2039 9.04168 3.53244 9.04168 3.87501V5.16668H6.45834C5.43063 5.16668 4.44501 5.57493 3.7183 6.30164C2.9916 7.02834 2.58334 8.01396 2.58334 9.04168V24.5417C2.58334 25.5694 2.9916 26.555 3.7183 27.2817C4.44501 28.0084 5.43063 28.4167 6.45834 28.4167H24.5417C25.5694 28.4167 26.555 28.0084 27.2817 27.2817C28.0084 26.555 28.4167 25.5694 28.4167 24.5417V9.04168C28.4167 8.01396 28.0084 7.02834 27.2817 6.30164C26.555 5.57493 25.5694 5.16668 24.5417 5.16668ZM25.8333 24.5417C25.8333 24.8842 25.6973 25.2128 25.455 25.455C25.2128 25.6973 24.8842 25.8333 24.5417 25.8333H6.45834C6.11577 25.8333 5.78723 25.6973 5.545 25.455C5.30276 25.2128 5.16668 24.8842 5.16668 24.5417V15.5H25.8333V24.5417ZM25.8333 12.9167H5.16668V9.04168C5.16668 8.69911 5.30276 8.37056 5.545 8.12833C5.78723 7.8861 6.11577 7.75001 6.45834 7.75001H9.04168V9.04168C9.04168 9.38425 9.17776 9.71279 9.42 9.95502C9.66223 10.1973 9.99077 10.3333 10.3333 10.3333C10.6759 10.3333 11.0045 10.1973 11.2467 9.95502C11.4889 9.71279 11.625 9.38425 11.625 9.04168V7.75001H19.375V9.04168C19.375 9.38425 19.5111 9.71279 19.7533 9.95502C19.9956 10.1973 20.3241 10.3333 20.6667 10.3333C21.0092 10.3333 21.3378 10.1973 21.58 9.95502C21.8223 9.71279 21.9583 9.38425 21.9583 9.04168V7.75001H24.5417C24.8842 7.75001 25.2128 7.8861 25.455 8.12833C25.6973 8.37056 25.8333 8.69911 25.8333 9.04168V12.9167Z" fill="#B33939"/>
</svg>
