<svg width="128" height="128" viewBox="0 0 128 128" fill="none" xmlns="http://www.w3.org/2000/svg">
<path d="M15.6 27.43C23.62 24.97 30.61 32.62 36.39 30.8C44.84 28.13 49.74 27.59 58.78 30.39C67.89 33.22 78.52 41.04 86.25 46.45C93.06 51.22 101.9 58.98 107.78 64.96C111.59 68.84 111.49 71.51 110.74 73.51C109.77 76.09 106.98 77.47 103.55 77.34C103.19 77.33 102.91 77.66 103.04 78C104.25 81.37 103.13 84.26 101.5 85.7C99.08 87.83 96.31 88.28 93.15 87.15C93.0717 87.1231 92.9875 87.118 92.9064 87.1352C92.8254 87.1525 92.7506 87.1915 92.69 87.2479C92.6294 87.3044 92.5853 87.3764 92.5624 87.456C92.5395 87.5356 92.5387 87.62 92.56 87.7C93.24 90.31 92.43 92.87 90.28 94.45C87.98 96.13 85.82 96.07 82.34 94.8C81.98 94.67 81.63 94.93 81.61 95.31C81.53 96.91 80.27 98.14 79.53 98.86C76.28 102.04 70.66 99.87 65.96 97.62C56.73 93.21 44.36 83.92 35.49 78.84C25.08 72.88 0.420033 59.73 1.42003 48.74C1.87003 43.76 8.18003 30.2 15.6 27.43V27.43Z" fill="#FAC036"/>
<mask id="mask0_111_23" style="mask-type:luminance" maskUnits="userSpaceOnUse" x="1" y="26" width="111" height="75">
<path d="M15.6 27.43C23.62 24.97 30.61 32.62 36.39 30.8C44.84 28.13 49.74 27.59 58.78 30.39C67.89 33.22 78.52 41.04 86.25 46.45C93.06 51.22 101.9 58.98 107.78 64.96C111.59 68.84 111.49 71.51 110.74 73.51C109.77 76.09 106.98 77.47 103.55 77.34C103.19 77.33 102.91 77.66 103.04 78C104.25 81.37 103.13 84.26 101.5 85.7C99.08 87.83 96.31 88.28 93.15 87.15C93.0717 87.1231 92.9875 87.118 92.9064 87.1352C92.8254 87.1525 92.7506 87.1915 92.69 87.2479C92.6294 87.3044 92.5853 87.3764 92.5624 87.456C92.5395 87.5356 92.5387 87.62 92.56 87.7C93.24 90.31 92.43 92.87 90.28 94.45C87.98 96.13 85.82 96.07 82.34 94.8C81.98 94.67 81.63 94.93 81.61 95.31C81.53 96.91 80.27 98.14 79.53 98.86C76.28 102.04 70.66 99.87 65.96 97.62C56.73 93.21 44.36 83.92 35.49 78.84C25.08 72.88 0.420033 59.73 1.42003 48.74C1.87003 43.76 8.18003 30.2 15.6 27.43V27.43Z" fill="white"/>
</mask>
<g mask="url(#mask0_111_23)">
<path d="M103.12 60.29C104.74 62.12 105.31 66.03 103.5 68.69C101.54 71.57 98.6201 71.38 97.8301 72.17C97.0301 72.97 97.87 75.82 95 78.38C91.86 81.17 88.58 79.78 87.5 80.63C86.62 81.32 87.66 84.12 83.84 86.81C79.9 89.59 76.43 88.39 75.81 88.94C74.87 89.78 76.0901 91.11 72.3701 94.38C68.6401 97.65 60.43 92.74 58.25 91.94C57.64 91.72 55.94 92.69 56.1 93.32C56.18 93.63 72.1901 103.72 77.8301 103.84C83.7501 103.96 89.84 103.37 95.14 100.71C97.16 99.7 99.02 98.41 100.81 97.04C105.31 93.59 109.48 89.45 111.7 84.23C113.31 80.46 113.81 76.31 114.03 72.21C114.21 68.9 114 65.1 111.42 63.02C109.35 61.35 105.58 60.17 103.12 60.29Z" fill="#E48C15"/>
</g>
<path d="M106.08 66.74C110.62 63.71 121.61 57.66 124.43 50.09C126.33 44.99 121.06 40.76 118.27 37.4C114.66 33.07 108.04 29.73 102.77 31C99.6199 31.76 92.8299 34.2 88.5299 34.07C83.2899 33.9 80.5099 33.71 77.0599 33.18C74.3599 32.77 70.4099 33.27 65.4599 34.83C60.4699 36.4 56.4499 38.21 51.4299 41.47C49.4499 42.76 47.0599 44.93 45.7599 47.07C43.7899 50.31 46.3299 55.41 51.2299 56.06C57.5499 56.9 64.2 50.04 71.33 47.07C73.44 46.19 75.69 44.95 78.5 45.19C81.64 45.47 95.06 56.17 106.08 66.74V66.74Z" fill="#E48C15"/>
<path d="M106.08 66.74C110.62 63.71 121.61 57.66 124.43 50.09C126.33 44.99 121.06 40.76 118.27 37.4C114.66 33.07 108.04 29.73 102.77 31C99.6199 31.76 92.8299 34.2 88.5299 34.07C83.2899 33.9 80.5099 33.71 77.0599 33.18C74.3599 32.77 70.4099 33.27 65.4599 34.83C60.4699 36.4 56.4499 38.21 51.4299 41.47C49.4499 42.76 47.0599 44.93 45.7599 47.07C43.7899 50.31 46.3299 55.41 51.2299 56.06C57.5499 56.9 64.2 50.04 71.33 47.07C73.44 46.19 75.69 44.95 78.5 45.19C81.64 45.47 95.06 56.17 106.08 66.74V66.74Z" stroke="#E48C15" stroke-width="4" stroke-miterlimit="10"/>
<path d="M67.19 85.74C67.19 85.74 67.15 90.48 66.51 92.08C65.87 93.68 65.43 95.63 64.36 96.83L66.07 97.68C68.85 93.81 69.47 92.5 69.47 89.9C69.46 87.05 67.19 85.74 67.19 85.74ZM33.04 68.82C33.04 68.82 34.67 71.47 34.03 73.07C33.39 74.67 33.05 76.3 31.98 77.5C31.98 77.5 32.37 77.08 32.88 77.37C33.37 77.65 33.06 78.23 33.06 78.23L34.6 76.49C35.51 75.34 35.57 73.53 35.15 71.94C34.61 69.88 33.04 68.82 33.04 68.82ZM44.82 73.09C44.82 73.09 45.19 77.93 44.56 79.53C43.92 81.13 43.58 82.76 42.51 83.96C42.51 83.96 43.13 83.64 43.63 83.92C44.12 84.2 43.85 84.98 43.85 84.98L46.07 82.38C46.98 81.23 47.34 79.1 47.17 77.21C46.93 74.55 44.82 73.09 44.82 73.09ZM58.31 77.89C58.31 77.89 56.16 85.13 55.52 86.73C54.88 88.33 54.58 90 53.51 91.2C53.51 91.2 54.11 90.82 54.61 91.1C55.1 91.38 54.82 92.18 54.82 92.18L57.52 89.04C58.43 87.89 60.35 84.9 60.34 81.88C60.32 79.03 58.31 77.89 58.31 77.89Z" fill="#E48C15"/>
<path d="M67.41 95.35C63.88 99.03 60.42 101.46 57.22 98.38C54.07 95.36 56.3 91.76 59.83 88.07C63.36 84.38 67.5 81.96 70.35 84.7C73.25 87.49 70.94 91.67 67.41 95.35Z" fill="#E48C15"/>
<path d="M67.41 95.35C63.88 99.03 60.42 101.46 57.22 98.38C54.07 95.36 56.3 91.76 59.83 88.07C63.36 84.38 67.5 81.96 70.35 84.7C73.25 87.49 70.94 91.67 67.41 95.35Z" stroke="#E48C15" stroke-width="2" stroke-miterlimit="10"/>
<path d="M56.7299 89.2C51.5999 95.07 48.0699 96.92 44.5299 93.53C41.0499 90.19 44.1099 85.94 48.3499 81.16C53.7299 75.11 57.8099 73.39 60.9599 76.4C64.1699 79.49 62.1899 82.95 56.7299 89.2V89.2Z" fill="#E48C15"/>
<path d="M56.7299 89.2C51.5999 95.07 48.0699 96.92 44.5299 93.53C41.0499 90.19 44.1099 85.94 48.3499 81.16C53.7299 75.11 57.8099 73.39 60.9599 76.4C64.1699 79.49 62.1899 82.95 56.7299 89.2V89.2Z" stroke="#E48C15" stroke-width="2" stroke-miterlimit="10"/>
<path d="M44.2 83.32C40.32 87.34 36.58 90.03 33.21 86.79C29.9 83.62 32.52 79.85 36.23 75.67C40.29 71.08 44.58 68.95 47.58 71.82C50.63 74.75 48.92 78.43 44.2 83.32Z" fill="#E48C15"/>
<path d="M44.2 83.32C40.32 87.34 36.58 90.03 33.21 86.79C29.9 83.62 32.52 79.85 36.23 75.67C40.29 71.08 44.58 68.95 47.58 71.82C50.63 74.75 48.92 78.43 44.2 83.32Z" stroke="#E48C15" stroke-width="2" stroke-miterlimit="10"/>
<path d="M33.25 77.06C30.15 80.29 27.04 82.33 23.76 79.18C20.54 76.09 22.39 72.84 25.49 69.61C28.59 66.38 32.35 64.39 35.27 67.19C38.24 70.04 36.35 73.83 33.25 77.06V77.06Z" fill="#E48C15"/>
<path d="M33.25 77.06C30.15 80.29 27.04 82.33 23.76 79.18C20.54 76.09 22.39 72.84 25.49 69.61C28.59 66.38 32.35 64.39 35.27 67.19C38.24 70.04 36.35 73.83 33.25 77.06V77.06Z" stroke="#E48C15" stroke-width="2" stroke-miterlimit="10"/>
<path d="M107.21 64.41C111.9 61.28 123.28 55.02 126.19 47.18C128.15 41.91 122.71 37.53 119.82 34.05C116.09 29.57 109.24 26.11 103.78 27.42C100.52 28.2 93.5 30.73 89.04 30.59C83.61 30.42 80.75 30.22 77.18 29.67C74.38 29.24 70.3 29.76 65.18 31.37C60.02 32.99 55.86 34.86 50.67 38.24C48.63 39.57 46.15 41.82 44.81 44.04C42.78 47.4 45.4 52.67 50.47 53.34C57.01 54.21 63.89 47.11 71.26 44.04C73.44 43.13 75.77 41.85 78.67 42.1C81.93 42.41 95.81 53.47 107.21 64.41V64.41Z" fill="#FAC036"/>
<path d="M64.65 96.52C61.17 100.14 57.78 102.53 54.63 99.5C51.54 96.53 53.72 92.99 57.2 89.36C60.68 85.74 64.74 83.35 67.54 86.04C70.4 88.79 68.13 92.9 64.65 96.52V96.52Z" fill="#FAC036"/>
<path d="M54.15 90.47C49.1 96.24 45.63 98.07 42.15 94.73C38.73 91.45 41.73 87.26 45.91 82.57C51.2 76.62 55.22 74.92 58.31 77.89C61.46 80.92 59.52 84.33 54.15 90.47V90.47Z" fill="#FAC036"/>
<path d="M41.82 84.68C38 88.63 34.32 91.27 31.01 88.1C27.76 84.98 30.33 81.27 33.98 77.16C37.98 72.65 42.19 70.55 45.14 73.38C48.15 76.26 46.47 79.88 41.82 84.68Z" fill="#FAC036"/>
<path d="M31.06 78.53C28.01 81.71 24.95 83.71 21.72 80.62C18.55 77.58 20.37 74.38 23.42 71.21C26.47 68.03 30.17 66.08 33.04 68.83C35.97 71.63 34.11 75.35 31.06 78.53V78.53Z" fill="#FAC036"/>
</svg>
