<svg width="62" height="61" viewBox="0 0 62 61" fill="none" xmlns="http://www.w3.org/2000/svg">
<path d="M36.6115 9.00638C36.6764 8.7653 36.7886 8.53929 36.9416 8.34127C37.0945 8.14324 37.2853 7.97708 37.503 7.85227C37.7207 7.72746 37.9611 7.64645 38.2103 7.61388C38.4596 7.58131 38.7128 7.5978 38.9556 7.66243C42.5032 8.58123 45.7398 10.4221 48.3323 12.9956C50.9248 15.569 52.7793 18.7819 53.7049 22.3034C53.77 22.5445 53.7866 22.7959 53.7538 23.0433C53.721 23.2907 53.6394 23.5293 53.5137 23.7454C53.3879 23.9615 53.2205 24.1509 53.021 24.3027C52.8216 24.4546 52.5939 24.5659 52.351 24.6304C52.1894 24.6726 52.023 24.6941 51.8559 24.6945C51.4342 24.6945 51.0243 24.5562 50.6899 24.3012C50.3555 24.0461 50.1154 23.6886 50.0068 23.2841C49.2519 20.4094 47.7384 17.7865 45.6222 15.6858C43.506 13.5852 40.8637 12.0827 37.9677 11.3334C37.7247 11.2691 37.4967 11.158 37.297 11.0062C37.0972 10.8545 36.9296 10.6651 36.8036 10.449C36.6776 10.2329 36.5958 9.99421 36.5628 9.74667C36.5299 9.49914 36.5464 9.24757 36.6115 9.00638ZM36.0541 18.9317C39.3527 19.8055 41.4721 21.9093 42.3523 25.1837C42.4609 25.5881 42.701 25.9457 43.0354 26.2007C43.3698 26.4558 43.7797 26.5941 44.2014 26.5941C44.3685 26.5937 44.5349 26.5721 44.6965 26.53C44.9394 26.4655 45.1671 26.3542 45.3665 26.2023C45.566 26.0504 45.7334 25.861 45.8592 25.645C45.9849 25.4289 46.0665 25.1903 46.0993 24.9429C46.1321 24.6954 46.1155 24.444 46.0504 24.203C44.8257 19.6535 41.6251 16.4765 37.042 15.2607C36.7992 15.1963 36.546 15.1801 36.2968 15.2128C36.0477 15.2456 35.8074 15.3267 35.5899 15.4516C35.3723 15.5765 35.1817 15.7428 35.0288 15.9408C34.8759 16.1388 34.7639 16.3648 34.699 16.6059C34.6342 16.8469 34.6177 17.0983 34.6507 17.3456C34.6837 17.5929 34.7655 17.8314 34.8913 18.0474C35.0171 18.2633 35.1846 18.4526 35.3841 18.6043C35.5836 18.756 35.8113 18.8673 36.0541 18.9317ZM55.6544 41.5723C55.2279 44.7897 53.6361 47.7431 51.1763 49.8807C48.7165 52.0183 45.5569 53.194 42.2877 53.1882C23.295 53.1882 7.84249 37.8491 7.84249 18.9958C7.83663 15.7506 9.02101 12.6142 11.1744 10.1725C13.3278 7.73074 16.303 6.15062 19.5443 5.72723C20.3639 5.62789 21.194 5.79434 21.9105 6.20174C22.627 6.60915 23.1915 7.23565 23.5199 7.98773L28.5718 19.1834V19.2119C28.8232 19.7876 28.927 20.4161 28.874 21.0413C28.821 21.6666 28.6128 22.269 28.268 22.7949C28.225 22.8591 28.1795 22.9184 28.1317 22.9778L23.1515 28.838C24.9431 32.4519 28.7512 36.1988 32.4397 37.9821L38.2619 33.0645C38.3191 33.0168 38.379 32.9724 38.4414 32.9316C38.9707 32.5811 39.5797 32.3672 40.2133 32.3091C40.8469 32.2511 41.485 32.3508 42.0701 32.5991L42.1012 32.6134L53.37 37.6259C54.129 37.9507 54.7617 38.5106 55.1734 39.2219C55.5852 39.9333 55.7539 40.7578 55.6544 41.5723ZM51.8559 41.0974H51.8296L40.587 36.0991L34.7624 41.0166C34.7059 41.0642 34.6468 41.1085 34.5854 41.1496C34.0346 41.5143 33.398 41.731 32.7377 41.7785C32.0773 41.8259 31.4159 41.7025 30.8179 41.4203C26.3377 39.2714 21.8718 34.8715 19.7046 30.4716C19.4176 29.8824 19.2888 29.2296 19.3307 28.5765C19.3726 27.9233 19.5838 27.292 19.9438 26.7437C19.9843 26.6793 20.0299 26.6182 20.0801 26.5609L25.0651 20.6935L20.0418 9.53351C20.0409 9.52404 20.0409 9.51449 20.0418 9.50502C17.7222 9.80539 15.5924 10.9348 14.0513 12.6819C12.5102 14.4289 11.6635 16.6736 11.6697 18.9958C11.6786 27.0539 14.9073 34.7794 20.6473 40.4773C26.3874 46.1753 34.1701 49.3802 42.2877 49.389C44.6256 49.397 46.8864 48.5595 48.6473 47.033C50.4083 45.5065 51.5489 43.3956 51.8559 41.095V41.0974Z" fill="#003A92"/>
</svg>
