<svg width="512" height="512" viewBox="0 0 512 512" fill="none" xmlns="http://www.w3.org/2000/svg">
<path d="M265.344 17.5L261.156 42.813C243.442 42.7095 225.785 44.8192 208.594 49.093L199.156 24.031L144.031 44.781L153.938 71.063C138.916 79.6521 124.982 90.0187 112.438 101.939L90 83.53L52.625 129.03L75.75 148C67.0782 162.656 60.1957 178.299 55.25 194.594L25.187 189.624L15.594 247.719L46 252.75C45.626 269.968 47.313 286.877 50.906 303.188L22 314.063L42.75 369.188L71.375 358.406C79.4486 373.432 89.2773 387.447 100.655 400.156L81.688 423.25L127.22 460.594L145.563 438.25C159.949 447.368 175.603 454.827 192.25 460.375L187.72 487.875L245.813 497.469L250.156 471.186C268.202 472.06 285.92 470.646 303.031 467.156L312.001 490.936L367.095 470.186L358.565 447.53C374.687 439.192 389.691 428.85 403.22 416.75L421.156 431.47L458.5 385.937L441.312 371.844C451.199 356.246 459.015 339.428 464.562 321.814L485.969 325.344L495.529 267.25L474.469 263.78C475.071 245.27 473.253 226.76 469.061 208.72L488.905 201.25L468.155 146.125L447.968 153.719C439.074 137.6 428.152 122.687 415.468 109.343L429.623 92.093L384.123 54.718L369.403 72.654C354.007 63.538 337.273 56.284 319.467 51.184L323.434 27.092L265.341 17.498L265.344 17.5ZM257.314 65.438C268.638 65.2915 279.952 66.1489 291.124 68C395.113 85.164 465.665 183.606 448.5 287.594C431.336 391.58 332.894 462.134 228.906 444.97C124.92 427.803 54.366 329.36 71.53 225.374C86.55 134.384 163.822 68.988 252.562 65.561C254.147 65.501 255.722 65.458 257.312 65.437L257.314 65.438ZM257.531 84.125C256.094 84.143 254.651 84.165 253.221 84.219C173.067 87.256 103.549 146.136 89.971 228.405C74.451 322.427 137.948 411.011 231.971 426.53C325.991 442.05 414.544 378.553 430.064 284.53C445.584 190.51 382.117 101.957 288.094 86.438C277.995 84.7693 267.768 83.9953 257.532 84.125H257.531ZM257.939 102.281C266.939 102.165 276.084 102.827 285.282 104.345C369.378 118.225 426.132 197.437 412.252 281.532C398.372 365.628 319.192 422.382 235.096 408.502C209.288 404.242 186.066 393.822 166.658 379.002L276.346 245.377L329.19 288.752L387.627 217.564L279.407 128.784L177.565 164.314L248.565 222.564L140.78 353.938C113.795 320.872 100.615 276.812 108.125 231.313C120.271 157.73 182.408 105.09 254.095 102.376C255.375 102.328 256.652 102.299 257.938 102.282L257.939 102.281Z" fill="#FFD233"/>
</svg>
