<svg width="70" height="42" viewBox="0 0 70 42" fill="none" xmlns="http://www.w3.org/2000/svg">
<g clip-path="url(#clip0_51_8)">
<path d="M66.5 0.043457H3.5C1.56734 0.043457 0 1.60756 0 3.53623V38.4639C0 40.3926 1.56734 41.9567 3.5 41.9567H21.0241C23.7792 41.9567 26.2773 40.3446 27.4072 37.8374L30.4412 31.1094C31.3042 29.195 33.0695 27.9856 35 27.9856C36.9305 27.9856 38.6958 29.195 39.5588 31.1094L42.5928 37.8374C43.7227 40.3446 46.2219 41.9567 48.9759 41.9567H66.5C68.4327 41.9567 70 40.3926 70 38.4639V3.53623C70 1.60756 68.4327 0.043457 66.5 0.043457ZM17.5 26.2392C13.6336 26.2392 10.5 23.1121 10.5 19.2537C10.5 15.3953 13.6336 12.2681 17.5 12.2681C21.3664 12.2681 24.5 15.3953 24.5 19.2537C24.5 23.1121 21.3664 26.2392 17.5 26.2392ZM52.5 26.2392C48.6336 26.2392 45.5 23.1121 45.5 19.2537C45.5 15.3953 48.6336 12.2681 52.5 12.2681C56.3664 12.2681 59.5 15.3953 59.5 19.2537C59.5 23.1121 56.3664 26.2392 52.5 26.2392Z" fill="#003A92"/>
</g>
<defs>
<clipPath id="clip0_51_8">
<rect width="70" height="42" fill="white"/>
</clipPath>
</defs>
</svg>
