<svg width="62" height="62" viewBox="0 0 62 62" fill="none" xmlns="http://www.w3.org/2000/svg">
<path d="M48.7941 13.0136C46.4549 10.668 43.6686 8.80834 40.5977 7.54292C37.5269 6.27751 34.233 5.63172 30.9081 5.64322C16.9769 5.64322 5.6227 16.914 5.6227 30.743C5.6227 35.1753 6.79639 39.481 8.99068 43.2802L5.41858 56.2986L18.814 52.8034C22.5136 54.8043 26.6726 55.8681 30.9081 55.8681C44.8393 55.8681 56.1934 44.5972 56.1934 30.7683C56.1934 24.0565 53.5654 17.7499 48.7941 13.0136ZM30.9081 51.613C27.1318 51.613 23.4322 50.5999 20.1918 48.7003L19.4263 48.2444L11.4656 50.3213L13.5834 42.6217L13.0731 41.8365C10.9751 38.5109 9.8611 34.6669 9.85819 30.743C9.85819 19.2442 19.2987 9.87294 30.8825 9.87294C36.4958 9.87294 41.7775 12.0511 45.7323 16.0023C47.6905 17.9372 49.2424 20.2387 50.2979 22.7734C51.3535 25.3081 51.8917 28.0256 51.8814 30.7683C51.9324 42.2671 42.4919 51.613 30.9081 51.613ZM42.4408 36.0111C41.803 35.7072 38.6901 34.1875 38.1288 33.9596C37.542 33.757 37.1337 33.6557 36.7 34.2635C36.2662 34.8967 35.067 36.3151 34.7098 36.7203C34.3526 37.1509 33.9699 37.2015 33.332 36.8723C32.6941 36.5683 30.6529 35.8845 28.2545 33.757C26.3664 32.0853 25.1162 30.0338 24.7334 29.4006C24.3762 28.7674 24.6824 28.4382 25.0141 28.1089C25.2948 27.8303 25.652 27.3744 25.9582 27.0198C26.2643 26.6652 26.3919 26.3866 26.596 25.9814C26.8001 25.5508 26.6981 25.1962 26.545 24.8923C26.3919 24.5883 25.1162 21.4984 24.6059 20.232C24.0956 19.0162 23.5597 19.1682 23.177 19.1429H21.9523C21.5185 19.1429 20.8552 19.2949 20.2683 19.928C19.707 20.5612 18.074 22.0809 18.074 25.1709C18.074 28.2609 20.3449 31.2495 20.651 31.6548C20.9572 32.0853 25.1162 38.4173 31.4439 41.1273C32.9493 41.7859 34.123 42.1658 35.0415 42.4444C36.5469 42.9256 37.9247 42.8496 39.0218 42.6977C40.2466 42.5204 42.7725 41.178 43.2828 39.709C43.8186 38.24 43.8187 36.9989 43.64 36.7203C43.4614 36.4417 43.0787 36.3151 42.4408 36.0111Z" fill="#003A92"/>
</svg>
