<svg width="97" height="97" viewBox="0 0 97 97" fill="none" xmlns="http://www.w3.org/2000/svg">
<path d="M54.5625 77.2967C54.5625 78.4958 54.2069 79.6679 53.5408 80.6649C52.8746 81.6618 51.9278 82.4389 50.82 82.8977C49.7122 83.3566 48.4932 83.4766 47.3172 83.2427C46.1412 83.0088 45.061 82.4314 44.2131 81.5835C43.3653 80.7357 42.7879 79.6555 42.554 78.4794C42.32 77.3034 42.4401 76.0845 42.899 74.9767C43.3578 73.8689 44.1349 72.9221 45.1318 72.2559C46.1288 71.5898 47.3009 71.2342 48.5 71.2342C50.1078 71.2342 51.6499 71.8729 52.7868 73.0099C53.9237 74.1468 54.5625 75.6888 54.5625 77.2967ZM78.6041 45.3322C70.0359 38.5491 59.4281 34.8584 48.5 34.8584C37.5719 34.8584 26.964 38.5491 18.3959 45.3322C17.4743 46.0886 16.8867 47.1767 16.7597 48.3621C16.6326 49.5476 16.9762 50.7355 17.7165 51.67C18.4568 52.6046 19.5345 53.211 20.7176 53.3586C21.9006 53.5063 23.0943 53.1833 24.0416 52.4594C31.003 46.9487 39.6214 43.9504 48.5 43.9504C57.3785 43.9504 65.997 46.9487 72.9584 52.4594C73.9056 53.1833 75.0993 53.5063 76.2824 53.3586C77.4654 53.211 78.5432 52.6046 79.2834 51.67C80.0237 50.7355 80.3673 49.5476 80.2403 48.3621C80.1132 47.1767 79.5256 46.0886 78.6041 45.3322ZM66.3351 58.844C61.1518 55.0759 54.9082 53.0463 48.5 53.0463C42.0918 53.0463 35.8482 55.0759 30.6649 58.844C29.6901 59.5545 29.0375 60.6231 28.8506 61.8147C28.6637 63.0064 28.9579 64.2235 29.6683 65.1982C30.3788 66.173 31.4474 66.8256 32.6391 67.0125C33.8307 67.1994 35.0478 66.9052 36.0226 66.1948C39.6488 63.5585 44.0168 62.1385 48.5 62.1385C52.9832 62.1385 57.3512 63.5585 60.9774 66.1948C61.46 66.5466 62.0072 66.7998 62.5878 66.9401C63.1683 67.0805 63.7708 67.105 64.3609 67.0125C64.9509 66.92 65.517 66.7121 66.0267 66.4008C66.5364 66.0895 66.9798 65.6809 67.3316 65.1982C67.6834 64.7156 67.9367 64.1684 68.077 63.5878C68.2173 63.0073 68.2419 62.4048 68.1494 61.8147C68.0568 61.2247 67.849 60.6586 67.5377 60.1489C67.2264 59.6392 66.8178 59.1958 66.3351 58.844Z" fill="#003A92"/>
</svg>
