<svg width="81" height="81" viewBox="0 0 81 81" fill="none" xmlns="http://www.w3.org/2000/svg">
<path d="M40.5 64.125C32.7375 64.125 18.9 63.45 13.1625 62.1C10.8 61.425 9.1125 59.7375 8.4375 57.375C7.425 53.6625 6.75 45.9 6.75 40.5C6.75 35.1 7.425 27.3375 8.4375 23.625C9.1125 21.2625 10.8 19.575 13.1625 18.9C18.9 17.55 32.7375 16.875 40.5 16.875C48.2625 16.875 62.1 17.55 67.8375 18.9C70.2 19.575 71.8875 21.2625 72.5625 23.625C73.575 27.3375 74.25 35.1 74.25 40.5C74.25 45.9 73.575 53.6625 72.5625 57.375C71.8875 59.7375 70.2 61.425 67.8375 62.1C62.1 63.45 48.2625 64.125 40.5 64.125Z" stroke="#003A92" stroke-width="5" stroke-linecap="round" stroke-linejoin="round"/>
<path d="M33.75 50.625L50.625 40.5L33.75 30.375V50.625Z" stroke="#003A92" stroke-width="5" stroke-linecap="round" stroke-linejoin="round"/>
</svg>
